<svg width="384" height="474" viewBox="0 0 384 474" fill="none" xmlns="http://www.w3.org/2000/svg">
<g clip-path="url(#clip0_271_2323)">
<path d="M201.033 473.164C238.431 473.164 268.75 442.6 268.75 404.91C268.75 367.221 238.431 336.65 201.033 336.65" stroke="#B89C6A" stroke-width="0.877922"/>
<path d="M278.141 1.03662C240.743 1.03662 210.424 31.5934 210.424 69.29C210.424 106.987 240.743 137.543 278.141 137.543" stroke="#B89C6A" stroke-width="0.877922"/>
<path d="M277.939 201.29V1.38232" stroke="#B89C6A" stroke-width="0.877922"/>
<path d="M310.742 201.29V1.38232" stroke="#B89C6A" stroke-width="0.877922"/>
<path d="M0.171875 1.05762H383.254" stroke="#B89C6A" stroke-width="1.05351"/>
<path d="M0.171875 169.821H277.815" stroke="#B89C6A" stroke-width="0.877922"/>
<path d="M253.045 201.353H382.834" stroke="#B89C6A" stroke-width="0.877922"/>
<path d="M0.171875 135.436H260.448" stroke="#B89C6A" stroke-width="0.877922"/>
<path d="M0.171875 103.296H219.779" stroke="#B89C6A" stroke-width="0.877922"/>
<path d="M0.171875 69.5181H210.968" stroke="#B89C6A" stroke-width="0.877922"/>
<path d="M203.745 263.406C203.745 253.397 199.775 243.798 192.71 236.721C185.645 229.644 176.062 225.668 166.071 225.668C156.079 225.668 146.496 229.644 139.431 236.721C132.366 243.798 128.396 253.397 128.396 263.406C128.398 273.414 132.368 283.011 139.433 290.086C146.498 297.162 156.08 301.137 166.071 301.137C176.061 301.137 185.643 297.162 192.708 290.086C199.773 283.011 203.743 273.414 203.745 263.406Z" stroke="#B89C6A" stroke-width="0.877922"/>
<path d="M137.096 239.354V69.8433" stroke="#B89C6A" stroke-width="0.877922"/>
<path d="M383.303 226.042C345.905 226.042 315.586 256.598 315.586 294.295C315.586 331.992 345.905 362.521 383.303 362.521" stroke="#B89C6A" stroke-width="0.877922"/>
<path d="M200.867 311.415H317.36" stroke="#B89C6A" stroke-width="0.877922"/>
<path d="M199.225 245.27H336.231" stroke="#B89C6A" stroke-width="0.877922"/>
<path d="M200.777 278.342H317.36" stroke="#B89C6A" stroke-width="0.877922"/>
<path d="M268.914 408.774H383.254" stroke="#B89C6A" stroke-width="0.877922"/>
<path d="M0.171875 473.585H383.254" stroke="#B89C6A" stroke-width="0.877922"/>
<path d="M135.545 473.821V285.642" stroke="#B89C6A" stroke-width="0.877922"/>
<path d="M167.678 473.737V301.165" stroke="#B89C6A" stroke-width="0.877922"/>
<path d="M200.783 473.585V278.453" stroke="#B89C6A" stroke-width="0.877922"/>
<path d="M200.383 346.824H237.063" stroke="#B89C6A" stroke-width="0.877922"/>
<path d="M200.777 359.217H251.679" stroke="#B89C6A" stroke-width="0.877922"/>
<path d="M200.998 371.609H260.373" stroke="#B89C6A" stroke-width="0.877922"/>
<path d="M200.701 384.009H265.43" stroke="#B89C6A" stroke-width="0.877922"/>
<path d="M200.674 396.402H268.384" stroke="#B89C6A" stroke-width="0.877922"/>
<path d="M200.777 408.795H268.832" stroke="#B89C6A" stroke-width="0.877922"/>
<path d="M382.916 473.855V0.78125" stroke="#B89C6A" stroke-width="0.877922"/>
<path d="M128.043 135.802V169.538" stroke="#B89C6A" stroke-width="0.877922"/>
<path d="M119.004 135.802V169.538" stroke="#B89C6A" stroke-width="0.877922"/>
<path d="M109.965 135.802V169.538" stroke="#B89C6A" stroke-width="0.877922"/>
<path d="M100.928 135.802V169.538" stroke="#B89C6A" stroke-width="0.877922"/>
<path d="M91.8887 135.802V169.538" stroke="#B89C6A" stroke-width="0.877922"/>
<path d="M82.8496 135.802V169.538" stroke="#B89C6A" stroke-width="0.877922"/>
<path d="M73.8105 135.802V169.538" stroke="#B89C6A" stroke-width="0.877922"/>
<path d="M64.7695 135.802V169.538" stroke="#B89C6A" stroke-width="0.877922"/>
<path d="M55.7305 135.802V169.538" stroke="#B89C6A" stroke-width="0.877922"/>
<path d="M46.6914 135.802V169.538" stroke="#B89C6A" stroke-width="0.877922"/>
<path d="M37.6523 135.802V169.538" stroke="#B89C6A" stroke-width="0.877922"/>
<path d="M28.6152 135.802V169.538" stroke="#B89C6A" stroke-width="0.877922"/>
<path d="M19.5762 135.802V169.538" stroke="#B89C6A" stroke-width="0.877922"/>
<path d="M10.5371 135.802V169.538" stroke="#B89C6A" stroke-width="0.877922"/>
<path d="M184.396 187.446C180.822 187.446 177.394 188.868 174.867 191.4C172.34 193.931 170.92 197.365 170.92 200.945C170.919 202.718 171.267 204.474 171.944 206.113C172.621 207.751 173.613 209.24 174.864 210.494C176.116 211.749 177.602 212.744 179.237 213.422C180.873 214.101 182.625 214.451 184.396 214.451" stroke="#B89C6A" stroke-width="0.877922"/>
<path d="M184.396 214.45H239.493" stroke="#B89C6A" stroke-width="0.877922"/>
<path d="M184.396 187.446H239.493" stroke="#B89C6A" stroke-width="0.877922"/>
<path d="M239.492 214.451C241.262 214.451 243.015 214.101 244.651 213.422C246.286 212.744 247.772 211.749 249.023 210.494C250.275 209.24 251.267 207.751 251.944 206.113C252.621 204.474 252.969 202.718 252.968 200.945C252.968 197.365 251.548 193.931 249.021 191.4C246.494 188.868 243.066 187.446 239.492 187.446" stroke="#B89C6A" stroke-width="0.877922"/>
<path d="M137.006 201.332H170.788" stroke="#B89C6A" stroke-width="0.877922"/>
<path d="M128.059 263.399H204.166" stroke="#B89C6A" stroke-width="0.877922"/>
<path d="M278.146 99.5083H382.834" stroke="#B89C6A" stroke-width="0.877922"/>
<path d="M310.57 22.2559C310.57 61.1275 343.104 92.6381 383.241 92.6381" stroke="#B89C6A" stroke-width="0.877922"/>
<path d="M370.699 198.819C379.895 195.004 384.262 184.443 380.453 175.231C376.644 166.02 366.101 161.645 356.905 165.461C347.709 169.276 343.342 179.837 347.151 189.049C350.96 198.261 361.503 202.635 370.699 198.819Z" stroke="#B89C6A" stroke-width="0.877922"/>
<path d="M383.221 351.455H346.154" stroke="#B89C6A" stroke-width="0.877922"/>
<path d="M382.62 339.062H332.408" stroke="#B89C6A" stroke-width="0.877922"/>
<path d="M383.22 326.669H323.846" stroke="#B89C6A" stroke-width="0.877922"/>
<path d="M383.219 314.27H318.49" stroke="#B89C6A" stroke-width="0.877922"/>
<path d="M383.221 301.877H316.201" stroke="#B89C6A" stroke-width="0.877922"/>
<path d="M0.414062 0.691406V473.91" stroke="#B89C6A" stroke-width="0.877922"/>
</g>
<defs>
<clipPath id="clip0_271_2323">
<rect width="384" height="474" fill="white"/>
</clipPath>
</defs>
</svg>
