<svg width="12" height="12" viewBox="0 0 12 12" fill="none" xmlns="http://www.w3.org/2000/svg">
<g id="Group">
<path id="Vector" d="M8.07157 6C8.07157 7.60576 7.79166 9.03578 7.35884 10.0457C7.14205 10.5515 6.89676 10.9289 6.64984 11.1726C6.40507 11.4142 6.1861 11.5 6.00014 11.5C5.81418 11.5 5.59521 11.4142 5.35044 11.1726C5.10352 10.9289 4.85823 10.5515 4.64144 10.0457C4.20862 9.03578 3.92871 7.60576 3.92871 6C3.92871 4.39424 4.20862 2.96422 4.64144 1.95432C4.85823 1.44848 5.10352 1.07107 5.35044 0.827383C5.59521 0.585818 5.81418 0.5 6.00014 0.5C6.1861 0.5 6.40507 0.585818 6.64984 0.827383C6.89676 1.07107 7.14205 1.44848 7.35884 1.95432C7.79166 2.96422 8.07157 4.39424 8.07157 6Z" stroke="#B89C6A" stroke-linecap="round" stroke-linejoin="round"/>
<path id="Vector_2" d="M0 6H12" stroke="#B89C6A" stroke-linecap="round" stroke-linejoin="round"/>
<path id="Vector_3" d="M11.5 6C11.5 9.03757 9.03757 11.5 6 11.5C2.96243 11.5 0.5 9.03757 0.5 6C0.5 2.96243 2.96243 0.5 6 0.5C9.03757 0.5 11.5 2.96243 11.5 6Z" stroke="#B89C6A" stroke-linecap="round" stroke-linejoin="round"/>
</g>
</svg>
